<svg width="20" height="23" viewBox="0 0 20 23" fill="none" xmlns="http://www.w3.org/2000/svg">
<path fill-rule="evenodd" clip-rule="evenodd" d="M5.09898 1.68542C3.25007 1.68542 1.71674 3.18195 1.67325 5.02752V17.1057C1.64091 18.9423 3.09841 20.45 4.92167 20.4812L5.0856 20.4801H14.0202C15.8512 20.46 17.3444 18.9468 17.3422 17.1068V7.07158L12.1746 1.68542H5.11236H5.09898ZM4.90627 22.1539C2.14851 22.106 -0.0461002 19.8344 0.000735925 17.0912V5.00744C0.0642993 2.24076 2.34924 0.0126953 5.09584 0.0126953H5.11592H12.5305C12.758 0.0126953 12.9755 0.105253 13.1338 0.269179L18.7832 6.15604C18.9315 6.31105 19.0151 6.51958 19.0151 6.7348V17.1057C19.0196 19.859 16.7826 22.1238 14.0293 22.1528L4.90627 22.1539Z" fill="#697586"/>
<path fill-rule="evenodd" clip-rule="evenodd" d="M18.1746 7.78819H15.1035C13.0617 7.78261 11.4023 6.11881 11.4023 4.08032V0.83636C11.4023 0.374689 11.777 0 12.2387 0C12.7004 0 13.0751 0.374689 13.0751 0.83636V4.08032C13.0751 5.19993 13.9861 6.11212 15.1057 6.11547H18.1746C18.6363 6.11547 19.011 6.49016 19.011 6.95183C19.011 7.4135 18.6363 7.78819 18.1746 7.78819Z" fill="#697586"/>
<path fill-rule="evenodd" clip-rule="evenodd" d="M12.0358 13.0067H6.57269C6.11102 13.0067 5.73633 12.632 5.73633 12.1703C5.73633 11.7087 6.11102 11.334 6.57269 11.334H12.0358C12.4975 11.334 12.8722 11.7087 12.8722 12.1703C12.8722 12.632 12.4975 13.0067 12.0358 13.0067Z" fill="#697586"/>
<path fill-rule="evenodd" clip-rule="evenodd" d="M9.30511 15.739C8.84344 15.739 8.46875 15.3643 8.46875 14.9026V9.43841C8.46875 8.97674 8.84344 8.60205 9.30511 8.60205C9.76678 8.60205 10.1415 8.97674 10.1415 9.43841V14.9026C10.1415 15.3643 9.76678 15.739 9.30511 15.739Z" fill="#697586"/>
</svg>
