<svg width="18" height="18" viewBox="0 0 18 18" fill="none" xmlns="http://www.w3.org/2000/svg">
<path fill-rule="evenodd" clip-rule="evenodd" d="M12.385 16.1252H6.12416C3.82439 16.1252 2.06009 15.2945 2.56123 11.9513L3.14476 7.42041C3.45368 5.75221 4.51776 5.11377 5.45139 5.11377H13.0853C14.0326 5.11377 15.0349 5.80027 15.3919 7.42041L15.9754 11.9513C16.4011 14.917 14.6848 16.1252 12.385 16.1252Z" stroke="#F5A3B7" stroke-width="1.2" stroke-linecap="round" stroke-linejoin="round"/>
<path d="M12.4884 4.9488C12.4884 3.15925 11.0377 1.70853 9.24815 1.70853V1.70853C8.38639 1.70487 7.55869 2.04465 6.94804 2.65271C6.3374 3.26078 5.99413 4.08704 5.99414 4.9488H5.99414" stroke="#F5A3B7" stroke-width="1.2" stroke-linecap="round" stroke-linejoin="round"/>
<path d="M11.4717 8.32616H11.4374" stroke="#F5A3B7" stroke-width="1.2" stroke-linecap="round" stroke-linejoin="round"/>
<path d="M7.09869 8.32616H7.06437" stroke="#F5A3B7" stroke-width="1.2" stroke-linecap="round" stroke-linejoin="round"/>
</svg>
