<svg width="46" height="18" viewBox="0 0 46 18" fill="none" xmlns="http://www.w3.org/2000/svg">
<path d="M21.4395 8.7939V14.0701H19.7656V1.04018H24.2049C24.7348 1.02911 25.2617 1.12309 25.7551 1.3167C26.2485 1.51031 26.6986 1.79971 27.0796 2.1682C27.4644 2.51432 27.7706 2.9388 27.9777 3.41312C28.1849 3.88743 28.288 4.40058 28.2804 4.91808C28.2914 5.43835 28.1898 5.95486 27.9825 6.43219C27.7753 6.90952 27.4672 7.3364 27.0796 7.68355C26.3033 8.42379 25.3451 8.79355 24.2049 8.79286H21.4395V8.7939ZM21.4395 2.64436V7.19284H24.2465C24.5543 7.20196 24.8605 7.14675 25.1457 7.03075C25.4309 6.91474 25.6887 6.74049 25.9027 6.51914C26.1156 6.31219 26.2848 6.06465 26.4003 5.79117C26.5159 5.51768 26.5754 5.22381 26.5754 4.92692C26.5754 4.63003 26.5159 4.33615 26.4003 4.06267C26.2848 3.78919 26.1156 3.54165 25.9027 3.33469C25.6914 3.10868 25.4345 2.93016 25.1489 2.81097C24.8634 2.69178 24.5558 2.63463 24.2465 2.64332H21.4395V2.64436Z" fill="#5F6368"/>
<path d="M32.1361 4.86401C33.3733 4.86401 34.3499 5.19462 35.0659 5.85584C35.7818 6.51706 36.1395 7.42364 36.1388 8.57557V14.0701H34.5377V12.8329H34.465C33.7719 13.8518 32.85 14.3612 31.6995 14.3612C30.7174 14.3612 29.8957 14.0701 29.2345 13.4879C28.9172 13.2207 28.6635 12.8861 28.4919 12.5084C28.3203 12.1307 28.2351 11.7194 28.2426 11.3047C28.2426 10.3821 28.5913 9.64849 29.2885 9.10371C29.9858 8.55893 30.9166 8.28585 32.081 8.28447C33.0749 8.28447 33.8935 8.46641 34.5367 8.83028V8.44769C34.5386 8.16492 34.4775 7.88528 34.3579 7.62903C34.2384 7.37279 34.0633 7.14637 33.8453 6.96619C33.4027 6.56684 32.8258 6.34894 32.2297 6.35591C31.2947 6.35591 30.5548 6.75029 30.0101 7.53904L28.5358 6.61063C29.3468 5.44622 30.5469 4.86401 32.1361 4.86401ZM29.9705 11.341C29.9694 11.5541 30.0192 11.7643 30.1158 11.9542C30.2124 12.144 30.3529 12.3081 30.5257 12.4327C30.8959 12.7239 31.3554 12.8781 31.8263 12.8693C32.5327 12.8681 33.2097 12.587 33.7091 12.0875C34.2636 11.5656 34.5409 10.9533 34.5409 10.2504C34.0189 9.83459 33.2912 9.62666 32.3576 9.62666C31.6777 9.62666 31.1107 9.79058 30.6567 10.1184C30.1982 10.4511 29.9705 10.8555 29.9705 11.341Z" fill="#5F6368"/>
<path d="M45.3283 5.15527L39.7391 18.0002H38.0112L40.0853 13.5058L36.4102 5.15527H38.2295L40.8859 11.5595H40.9222L43.5058 5.15527H45.3283Z" fill="#5F6368"/>
<path d="M14.6725 7.65633C14.6732 7.14622 14.63 6.63701 14.5436 6.13428H7.48438V9.01723H11.5276C11.4448 9.47768 11.2697 9.91661 11.0128 10.3076C10.7558 10.6985 10.4224 11.0334 10.0326 11.292V13.1634H12.4456C13.8585 11.8607 14.6725 9.9342 14.6725 7.65633Z" fill="#4285F4"/>
<path d="M7.48495 14.9716C9.505 14.9716 11.2059 14.3083 12.4462 13.1646L10.0331 11.2933C9.36152 11.7486 8.49653 12.0085 7.48495 12.0085C5.53249 12.0085 3.87528 10.6923 3.28268 8.9187H0.796875V10.8473C1.4199 12.087 2.37525 13.1292 3.55626 13.8575C4.73726 14.5858 6.09745 14.9715 7.48495 14.9716Z" fill="#34A853"/>
<path d="M3.28288 8.91883C2.96959 7.98943 2.96959 6.98296 3.28288 6.05355V4.125H0.797071C0.272958 5.16793 0 6.31897 0 7.48619C0 8.65341 0.272958 9.80446 0.797071 10.8474L3.28288 8.91883Z" fill="#FBBC04"/>
<path d="M7.48495 2.9635C8.55245 2.94606 9.58394 3.34939 10.3565 4.08632L12.493 1.94984C11.1382 0.677383 9.34345 -0.0212158 7.48495 0.000491118C6.09745 0.000554355 4.73726 0.386259 3.55626 1.11454C2.37525 1.84283 1.4199 2.88503 0.796875 4.12479L3.28268 6.05334C3.87528 4.2797 5.53249 2.9635 7.48495 2.9635Z" fill="#EA4335"/>
</svg>
