<svg width="33" height="20" viewBox="0 0 33 20" fill="none" xmlns="http://www.w3.org/2000/svg">
<path d="M20.55 17.8632H11.8008V2.1394H20.55V17.8632Z" fill="#FF5F00"/>
<path d="M12.3593 10C12.3593 6.81035 13.8528 3.9691 16.1784 2.13809C14.4777 0.799161 12.3314 5.33497e-07 9.99873 5.33497e-07C4.47644 5.33497e-07 0 4.47708 0 10C0 15.5229 4.47644 20 9.99873 20C12.3314 20 14.4777 19.2008 16.1784 17.8619C13.8528 16.0309 12.3593 13.1896 12.3593 10Z" fill="#EB001B"/>
<path d="M32.347 10C32.347 15.5229 27.8706 20 22.3483 20C20.0156 20 17.8693 19.2008 16.168 17.8619C18.4942 16.0309 19.9877 13.1896 19.9877 10C19.9877 6.81035 18.4942 3.9691 16.168 2.13809C17.8693 0.799161 20.0156 5.33497e-07 22.3483 5.33497e-07C27.8706 5.33497e-07 32.347 4.47708 32.347 10Z" fill="#F79E1B"/>
<path d="M7.52244 10.0634C7.52244 9.62658 7.80867 9.26773 8.27642 9.26773C8.72333 9.26773 9.02504 9.6111 9.02504 10.0634C9.02504 10.5156 8.72333 10.859 8.27642 10.859C7.80867 10.859 7.52244 10.5002 7.52244 10.0634ZM9.53444 10.0634V8.82082H8.9941V9.12253C8.82271 8.89878 8.56266 8.75834 8.20917 8.75834C7.51232 8.75834 6.96602 9.30463 6.96602 10.0634C6.96602 10.8227 7.51232 11.3684 8.20917 11.3684C8.56266 11.3684 8.82271 11.228 8.9941 11.0042V11.3059H9.53444V10.0634ZM27.7942 10.0634C27.7942 9.62658 28.0805 9.26773 28.5482 9.26773C28.9957 9.26773 29.2968 9.6111 29.2968 10.0634C29.2968 10.5156 28.9957 10.859 28.5482 10.859C28.0805 10.859 27.7942 10.5002 27.7942 10.0634ZM29.8068 10.0634V7.82285H29.2659V9.12253C29.0945 8.89878 28.8345 8.75834 28.481 8.75834C27.7841 8.75834 27.2378 9.30463 27.2378 10.0634C27.2378 10.8227 27.7841 11.3684 28.481 11.3684C28.8345 11.3684 29.0945 11.228 29.2659 11.0042V11.3059H29.8068V10.0634ZM16.2417 9.24215C16.5898 9.24215 16.8136 9.46054 16.8707 9.84497H15.5812C15.6389 9.48613 15.8567 9.24215 16.2417 9.24215ZM16.2524 8.75834C15.524 8.75834 15.0146 9.28856 15.0146 10.0634C15.0146 10.8537 15.5449 11.3684 16.2887 11.3684C16.663 11.3684 17.0058 11.275 17.3075 11.0203L17.0427 10.6198C16.8344 10.7858 16.569 10.8798 16.3197 10.8798C15.9715 10.8798 15.6544 10.7186 15.5764 10.2711H17.4218C17.4271 10.2038 17.4325 10.136 17.4325 10.0634C17.4271 9.28856 16.9487 8.75834 16.2524 8.75834ZM22.777 10.0634C22.777 9.62658 23.0633 9.26773 23.531 9.26773C23.9779 9.26773 24.2796 9.6111 24.2796 10.0634C24.2796 10.5156 23.9779 10.859 23.531 10.859C23.0633 10.859 22.777 10.5002 22.777 10.0634ZM24.789 10.0634V8.82082H24.2487V9.12253C24.0767 8.89878 23.8172 8.75834 23.4638 8.75834C22.7669 8.75834 22.2206 9.30463 22.2206 10.0634C22.2206 10.8227 22.7669 11.3684 23.4638 11.3684C23.8172 11.3684 24.0767 11.228 24.2487 11.0042V11.3059H24.789V10.0634ZM19.7254 10.0634C19.7254 10.8174 20.2503 11.3684 21.0512 11.3684C21.4256 11.3684 21.6749 11.2851 21.9451 11.0721L21.6856 10.6353C21.4827 10.7811 21.2696 10.859 21.0352 10.859C20.6037 10.8537 20.2866 10.5418 20.2866 10.0634C20.2866 9.58492 20.6037 9.27309 21.0352 9.26773C21.2696 9.26773 21.4827 9.34569 21.6856 9.49149L21.9451 9.05469C21.6749 8.84165 21.4256 8.75834 21.0512 8.75834C20.2503 8.75834 19.7254 9.30939 19.7254 10.0634ZM26.6921 8.75834C26.3803 8.75834 26.1774 8.90413 26.0369 9.12253V8.82082H25.5013V11.3059H26.0423V9.91281C26.0423 9.50161 26.219 9.27309 26.5725 9.27309C26.682 9.27309 26.7963 9.28856 26.9105 9.33558L27.0771 8.82618C26.9575 8.77916 26.8016 8.75834 26.6921 8.75834ZM12.207 9.01839C11.9469 8.847 11.5887 8.75834 11.1936 8.75834C10.5639 8.75834 10.1587 9.06005 10.1587 9.55397C10.1587 9.95923 10.4604 10.2092 11.0162 10.2871L11.2715 10.3234C11.5679 10.3651 11.7077 10.443 11.7077 10.5835C11.7077 10.7757 11.5101 10.8852 11.1412 10.8852C10.7669 10.8852 10.4967 10.7656 10.3146 10.6251L10.0599 11.0459C10.3563 11.2643 10.7306 11.3684 11.1358 11.3684C11.8535 11.3684 12.2695 11.0304 12.2695 10.5573C12.2695 10.1205 11.9422 9.89199 11.4012 9.81403L11.1465 9.77713C10.9127 9.74619 10.7252 9.69977 10.7252 9.53315C10.7252 9.35105 10.902 9.24215 11.1983 9.24215C11.5155 9.24215 11.8226 9.36176 11.9731 9.45519L12.207 9.01839ZM19.1791 8.75834C18.8673 8.75834 18.6643 8.90413 18.5245 9.12253V8.82082H17.9889V11.3059H18.5293V9.91281C18.5293 9.50161 18.706 9.27309 19.0595 9.27309C19.169 9.27309 19.2832 9.28856 19.3975 9.33558L19.5641 8.82618C19.4445 8.77916 19.2886 8.75834 19.1791 8.75834ZM14.5677 8.82082H13.684V8.06684H13.1377V8.82082H12.6337V9.31475H13.1377V10.4484C13.1377 11.025 13.3615 11.3684 14.0006 11.3684C14.2351 11.3684 14.5052 11.2958 14.6766 11.1762L14.5207 10.7132C14.3594 10.8066 14.1827 10.8537 14.0423 10.8537C13.7721 10.8537 13.684 10.687 13.684 10.4377V9.31475H14.5677V8.82082ZM6.48817 11.3059V9.74619C6.48817 9.15883 6.11385 8.76369 5.51043 8.75834C5.19325 8.75298 4.86595 8.85177 4.63684 9.20049C4.46545 8.92496 4.19528 8.75834 3.81561 8.75834C3.5502 8.75834 3.29074 8.83629 3.08781 9.12729V8.82082H2.54688V11.3059H3.09257V9.92829C3.09257 9.49684 3.3318 9.26773 3.70135 9.26773C4.06019 9.26773 4.2417 9.50161 4.2417 9.92293V11.3059H4.78799V9.92829C4.78799 9.49684 5.03733 9.26773 5.39617 9.26773C5.76513 9.26773 5.94187 9.50161 5.94187 9.92293V11.3059H6.48817Z" fill="white"/>
</svg>
