<svg width="14" height="15" viewBox="0 0 14 15" fill="none" xmlns="http://www.w3.org/2000/svg">
<path d="M6.7264 0.699129C6.82103 0.433624 7.17897 0.433624 7.27359 0.699129L8.87925 5.20445C8.9203 5.31963 9.023 5.39792 9.1401 5.40329L13.7202 5.61326C13.9901 5.62564 14.1007 5.98281 13.8893 6.15927L10.3015 9.15369C10.2098 9.23025 10.1706 9.35691 10.2019 9.47542L11.4269 14.1105C11.4991 14.3837 11.2095 14.6044 10.9842 14.448L7.16121 11.7933C7.06347 11.7254 6.93653 11.7254 6.83879 11.7933L3.01579 14.448C2.7905 14.6044 2.50092 14.3837 2.57311 14.1105L3.79809 9.47542C3.82941 9.35691 3.79018 9.23025 3.69846 9.15369L0.11073 6.15927C-0.100701 5.98281 0.00990903 5.62564 0.27982 5.61326L4.8599 5.40329C4.977 5.39792 5.07969 5.31963 5.12075 5.20445L6.7264 0.699129Z" fill="#DFE1E3"/>
</svg>
