<svg width="77" height="30" viewBox="0 0 77 30" fill="none" xmlns="http://www.w3.org/2000/svg">
<path d="M0 0.5H62.5C70.5081 0.5 77 6.99187 77 15C77 23.0081 70.5081 29.5 62.5 29.5H0V0.5Z" fill="#F5A3B7"/>
<path d="M26.972 13.76V15.104H21.218V13.76H26.972ZM29.9115 17.33C30.8075 16.5553 31.5121 15.9207 32.0255 15.426C32.5481 14.922 32.9821 14.3993 33.3275 13.858C33.6728 13.3167 33.8455 12.7753 33.8455 12.234C33.8455 11.674 33.7101 11.2353 33.4395 10.918C33.1781 10.6007 32.7628 10.442 32.1935 10.442C31.6428 10.442 31.2135 10.6193 30.9055 10.974C30.6068 11.3193 30.4481 11.786 30.4295 12.374H28.8895C28.9175 11.31 29.2348 10.498 29.8415 9.938C30.4575 9.36867 31.2368 9.084 32.1795 9.084C33.1968 9.084 33.9901 9.364 34.5595 9.924C35.1381 10.484 35.4275 11.2307 35.4275 12.164C35.4275 12.836 35.2548 13.4847 34.9095 14.11C34.5735 14.726 34.1675 15.2813 33.6915 15.776C33.2248 16.2613 32.6275 16.826 31.8995 17.47L31.2695 18.03H35.7075V19.36H28.9035V18.198L29.9115 17.33ZM37.1095 14.264C37.1095 12.6493 37.3802 11.3893 37.9215 10.484C38.4722 9.56933 39.4149 9.112 40.7495 9.112C42.0842 9.112 43.0222 9.56933 43.5635 10.484C44.1142 11.3893 44.3895 12.6493 44.3895 14.264C44.3895 15.8973 44.1142 17.176 43.5635 18.1C43.0222 19.0147 42.0842 19.472 40.7495 19.472C39.4149 19.472 38.4722 19.0147 37.9215 18.1C37.3802 17.176 37.1095 15.8973 37.1095 14.264ZM42.8215 14.264C42.8215 13.508 42.7702 12.8687 42.6675 12.346C42.5742 11.8233 42.3782 11.3987 42.0795 11.072C41.7809 10.736 41.3375 10.568 40.7495 10.568C40.1615 10.568 39.7182 10.736 39.4195 11.072C39.1209 11.3987 38.9202 11.8233 38.8175 12.346C38.7242 12.8687 38.6775 13.508 38.6775 14.264C38.6775 15.048 38.7242 15.706 38.8175 16.238C38.9109 16.77 39.1069 17.1993 39.4055 17.526C39.7135 17.8527 40.1615 18.016 40.7495 18.016C41.3375 18.016 41.7809 17.8527 42.0795 17.526C42.3875 17.1993 42.5882 16.77 42.6815 16.238C42.7749 15.706 42.8215 15.048 42.8215 14.264ZM45.8263 11.758C45.8263 11.0767 46.0223 10.5447 46.4143 10.162C46.8156 9.77 47.3289 9.574 47.9543 9.574C48.5796 9.574 49.0883 9.77 49.4803 10.162C49.8816 10.5447 50.0823 11.0767 50.0823 11.758C50.0823 12.4393 49.8816 12.976 49.4803 13.368C49.0883 13.76 48.5796 13.956 47.9543 13.956C47.3289 13.956 46.8156 13.76 46.4143 13.368C46.0223 12.976 45.8263 12.4393 45.8263 11.758ZM54.3663 9.756L48.7803 19.5H47.2123L52.7983 9.756H54.3663ZM47.9543 10.54C47.3663 10.54 47.0723 10.946 47.0723 11.758C47.0723 12.5793 47.3663 12.99 47.9543 12.99C48.2343 12.99 48.4489 12.892 48.5983 12.696C48.7569 12.4907 48.8363 12.178 48.8363 11.758C48.8363 10.946 48.5423 10.54 47.9543 10.54ZM51.5243 17.484C51.5243 16.8027 51.7203 16.2707 52.1123 15.888C52.5136 15.496 53.0269 15.3 53.6523 15.3C54.2683 15.3 54.7723 15.496 55.1643 15.888C55.5656 16.2707 55.7663 16.8027 55.7663 17.484C55.7663 18.1653 55.5656 18.702 55.1643 19.094C54.7723 19.486 54.2683 19.682 53.6523 19.682C53.0269 19.682 52.5136 19.486 52.1123 19.094C51.7203 18.702 51.5243 18.1653 51.5243 17.484ZM53.6383 16.266C53.0503 16.266 52.7563 16.672 52.7563 17.484C52.7563 18.296 53.0503 18.702 53.6383 18.702C54.2263 18.702 54.5203 18.296 54.5203 17.484C54.5203 16.672 54.2263 16.266 53.6383 16.266Z" fill="white"/>
</svg>
