<svg width="25" height="24" viewBox="0 0 25 24" fill="none" xmlns="http://www.w3.org/2000/svg">
<path d="M10.0563 14.3667C9.47254 13.7927 9.11719 13.0127 9.11719 12.1377C9.11719 10.3847 10.5508 8.97168 12.3296 8.97168C13.2099 8.97168 14.0201 9.32268 14.5937 9.89668" stroke="#DFE1E3" stroke-width="1.5" stroke-linecap="round" stroke-linejoin="round"/>
<path d="M15.4821 12.6987C15.2465 13.9887 14.215 15.0067 12.9062 15.2407" stroke="#DFE1E3" stroke-width="1.5" stroke-linecap="round" stroke-linejoin="round"/>
<path d="M6.90227 17.472C5.29098 16.226 3.92641 14.406 2.9375 12.137C3.93656 9.85798 5.31027 8.02798 6.93171 6.77198C8.54301 5.51598 10.402 4.83398 12.3291 4.83398C14.2673 4.83398 16.1253 5.52598 17.7468 6.79098" stroke="#DFE1E3" stroke-width="1.5" stroke-linecap="round" stroke-linejoin="round"/>
<path d="M19.8906 8.99072C20.5891 9.90472 21.2034 10.9597 21.7201 12.1367C19.723 16.6937 16.1938 19.4387 12.3286 19.4387C11.4524 19.4387 10.5883 19.2987 9.75781 19.0257" stroke="#DFE1E3" stroke-width="1.5" stroke-linecap="round" stroke-linejoin="round"/>
<path d="M20.3358 4.24951L4.32031 20.0235" stroke="#DFE1E3" stroke-width="1.5" stroke-linecap="round" stroke-linejoin="round"/>
</svg>
