<svg width="20" height="351" viewBox="0 0 20 351" fill="none" xmlns="http://www.w3.org/2000/svg">
<path fill-rule="evenodd" clip-rule="evenodd" d="M6.54685 0.570914C6.17778 1.13748 6.11687 1.15616 5.47867 0.898763C4.24015 0.399461 3.83386 0.515744 3.53427 1.45599C3.19182 2.53141 3.56698 4.29415 4.35589 5.31503C4.65457 5.70166 5.30654 6.59077 5.80442 7.29102L6.70996 8.56421L6.7077 30.8418L6.70544 38.9054L5.76201 37.2078C5.0541 35.934 4.29588 35.0158 2.72462 33.5293C1.57296 32.4399 0.503191 31.5881 0.347531 31.6363C-0.0966638 31.7742 -0.119899 34.2323 0.305797 36.0326C1.02905 39.0906 2.50398 41.4462 5.12425 43.7282L6.71943 45.1175V48.8547V351H7.28342H7.8474V31.4101V27.2852L9.75142 26.3978C12.7699 24.9909 15.0892 22.6557 16.2668 19.8377C16.8227 18.5076 16.7757 18.2277 16.0252 18.3996C14.6872 18.706 12.1053 20.0906 10.7993 21.2023C10.0442 21.8451 9.42679 22.2913 9.42724 22.1939C9.42814 21.8667 11.0486 19.4824 12.1768 18.1477C13.6896 16.3576 14.4754 15.8411 15.2076 16.1552C16.3268 16.6347 17.9588 16.3328 19.2963 15.3987C20.1754 14.7848 20.2312 14.2327 19.4617 13.7584C19.0005 13.474 18.9369 13.3327 19.1233 13.0053C19.4962 12.3498 19.3926 12.1497 18.6802 12.1497C18.1541 12.1497 17.9775 12.0362 17.8685 11.6279C17.6445 10.788 17.2305 10.5884 16.4757 10.9555C14.9644 11.6905 13.6068 13.7892 14.0072 14.7708C14.0761 14.9395 13.7268 15.3743 13.1721 15.8106C11.925 16.7911 9.92084 19.2792 8.77098 21.2742L7.85372 22.8657L7.85056 14.3122L7.8474 8.60135L8.56908 7.52189C8.9659 6.92795 9.57229 6.13136 9.91655 5.75174C11.3071 4.21733 11.6191 0.809849 10.384 0.644971C10.104 0.607624 9.5547 0.727307 9.16307 0.91107C8.77144 1.09483 8.43666 1.22088 8.41929 1.19117C7.61369 -0.181964 7.13994 -0.338992 6.54685 0.570914ZM8.08789 2.24049C8.41477 3.17204 8.25348 4.66613 7.74769 5.39227C7.25612 6.09804 6.88096 5.83258 6.48368 4.49849C6.25042 3.71442 6.24704 3.32291 6.46744 2.54797C6.9642 0.800938 7.54398 0.690809 8.08789 2.24049ZM5.35775 1.66374C5.70471 1.83838 5.74035 2.00028 5.57973 2.67274C5.40467 3.40588 5.47596 3.9489 5.94993 5.48734L6.11349 6.01783L5.59507 5.59343C4.83504 4.97127 4.2485 3.61384 4.24286 2.46351C4.23767 1.39658 4.48064 1.22215 5.35775 1.66374ZM10.324 2.46351C10.3183 3.61384 9.73179 4.97127 8.97177 5.59343L8.45335 6.01783L8.61691 5.48734C9.09043 3.95017 9.16216 3.40567 8.98755 2.67486C8.78519 1.82734 9.0593 1.47636 9.93415 1.46194C10.2563 1.45684 10.328 1.64082 10.324 2.46351ZM17.0968 11.6018C17.0968 11.6506 17.1583 11.8416 17.2337 12.0262C17.3239 12.2478 17.2456 12.3619 17.0031 12.3619C16.801 12.3619 16.1772 12.7592 15.6171 13.2449C14.629 14.1017 14.6062 14.1096 14.8465 13.5101C15.1384 12.7821 16.3814 11.5131 16.8026 11.5131C16.9643 11.5131 17.0968 11.553 17.0968 11.6018ZM18.4503 12.9915C18.4503 13.4013 16.88 14.6605 16.1917 14.8028C15.2555 14.9961 15.1142 14.8113 15.6615 14.1092C16.3694 13.2007 18.4503 12.3668 18.4503 12.9915ZM19.1077 14.3557C19.3168 14.5928 19.2187 14.7394 18.6173 15.0891C17.8965 15.508 15.9688 15.944 15.9688 15.6881C15.9688 15.6202 16.4003 15.3849 16.9276 15.1648C17.4548 14.945 18.0258 14.6063 18.1959 14.4124C18.5735 13.9821 18.7673 13.9702 19.1077 14.3557ZM15.5176 19.6C15.5176 20.1708 13.9845 22.4602 12.9221 23.4756C11.877 24.4744 9.97295 25.7304 9.50372 25.7304C9.404 25.7304 10.2789 24.8273 11.4477 23.7232C13.1971 22.0708 13.5017 21.6906 13.1717 21.5713C12.8678 21.4618 12.2826 21.8835 10.7601 23.3088C9.65441 24.3441 8.74978 25.0923 8.74978 24.9718C8.74978 24.5417 10.1076 22.7486 11.1341 21.8236C11.708 21.3061 12.8531 20.5441 13.6786 20.1299C15.32 19.3061 15.5176 19.2492 15.5176 19.6ZM3.12098 35.0353C3.80949 35.8018 4.69924 37.0582 5.09787 37.8274C5.76562 39.1154 6.49903 41.435 6.47873 42.1944C6.47399 42.3695 5.71351 41.1044 4.78858 39.3828C3.86364 37.6612 3.003 36.2529 2.87576 36.2529C2.27681 36.2529 2.51888 37.0565 3.89703 39.6434C4.71797 41.1846 5.35391 42.5465 5.31014 42.67C5.19802 42.9864 3.25093 40.6297 2.43021 39.1842C1.65417 37.817 0.853988 35.114 0.853988 33.8589C0.853988 33.0362 0.864817 33.0247 1.36158 33.3301C1.64086 33.5015 2.43247 34.269 3.12098 35.0353Z" fill="#B0A6BD"/>
</svg>
