<svg width="176" height="12" viewBox="0 0 176 12" fill="none" xmlns="http://www.w3.org/2000/svg">
<path fill-rule="evenodd" clip-rule="evenodd" d="M1.01906 3.1095C1.53416 2.80275 1.55114 2.75212 1.31713 2.22168C0.863177 1.19229 0.968897 0.854595 1.82374 0.605591C2.80148 0.320962 4.40409 0.632781 5.33225 1.28848C5.68376 1.53673 6.4921 2.07861 7.12875 2.49243L8.28629 3.24507C28.6255 3.23986 151.379 3.25294 175.5 3.25294L175.5 3.7217L175.5 4.19046L29.057 4.19046L22.7222 4.19046L21.9154 5.77298C20.6363 8.28177 18.5132 10.2095 15.9511 11.1882C14.7419 11.6503 14.4874 11.6113 14.6437 10.9874C14.9223 9.87535 16.1811 7.72938 17.1918 6.64393C17.9673 5.81117 18.6714 4.88808 19.9156 4.19571L13.5122 4.19308L8.32006 4.19046L7.33865 4.79028C6.79866 5.1201 6.07442 5.6241 5.72928 5.91023C4.33426 7.066 1.23629 7.32531 1.08639 6.29873C1.05243 6.06604 1.16124 5.60948 1.32832 5.28397C1.49539 4.95847 1.60998 4.68021 1.58297 4.66578C0.334564 3.9962 0.1918 3.60244 1.01906 3.1095ZM5.40247 4.10758C4.74229 4.52796 3.38391 4.66203 2.53698 4.39034C1.12806 3.93827 1.22819 3.45638 2.81652 3.0435C3.52108 2.86031 3.87703 2.86312 4.58988 3.057C5.80279 3.38719 6.04414 3.69901 5.40247 4.10758ZM2.92996 2.30568C2.31859 2.43918 2.17139 2.40955 2.01261 2.12117C1.61114 1.39216 1.76972 1.19023 2.73974 1.19454C3.78558 1.19923 5.01971 1.68673 5.58536 2.31843L5.97121 2.74931L5.4889 2.61337C4.09021 2.21942 3.59651 2.16018 2.92996 2.30568ZM5.58536 5.12497C5.01971 5.75667 3.78558 6.24417 2.73974 6.24886C1.99178 6.25224 1.82451 6.19261 1.82914 5.92486C1.84226 5.19772 2.16136 4.9699 2.93189 5.13809C3.59632 5.28322 4.09136 5.2236 5.4889 4.83003L5.97121 4.69409L5.58536 5.12497ZM19.2586 8.40833C18.3355 9.29128 16.254 10.5655 15.7351 10.5655C15.4162 10.5655 15.4679 10.4013 16.2168 9.03702C16.5934 8.35095 17.2862 7.39919 17.7567 6.92218C18.5977 6.06905 20.2279 4.94047 20.6189 4.94047C20.7285 4.94047 20.0483 5.69235 19.107 6.61131C17.8111 7.87676 17.4278 8.36314 17.5273 8.61571C17.6358 8.89003 17.9815 8.6369 19.4838 7.18281C20.4875 6.21136 21.3086 5.48423 21.3086 5.5671C21.3086 5.95711 20.1667 7.53963 19.2586 8.40833Z" fill="#B0A6BD"/>
</svg>
