<svg width="176" height="12" viewBox="0 0 176 12" fill="none" xmlns="http://www.w3.org/2000/svg">
<path fill-rule="evenodd" clip-rule="evenodd" d="M174.981 3.1095C174.466 2.80275 174.449 2.75212 174.683 2.22168C175.137 1.19229 175.031 0.854595 174.176 0.605591C173.199 0.320962 171.596 0.632781 170.668 1.28848C170.316 1.53673 169.508 2.07861 168.871 2.49243L167.714 3.24507C147.375 3.23986 24.6209 3.25294 0.5 3.25294L0.5 3.7217L0.5 4.19046L146.943 4.19046L153.278 4.19046L154.085 5.77298C155.364 8.28177 157.487 10.2095 160.049 11.1882C161.258 11.6503 161.513 11.6113 161.356 10.9874C161.078 9.87535 159.819 7.72938 158.808 6.64393C158.033 5.81117 157.329 4.88808 156.084 4.19571L162.488 4.19308L167.68 4.19046L168.661 4.79028C169.201 5.1201 169.926 5.6241 170.271 5.91023C171.666 7.066 174.764 7.32531 174.914 6.29873C174.948 6.06604 174.839 5.60948 174.672 5.28397C174.505 4.95847 174.39 4.68021 174.417 4.66578C175.665 3.9962 175.808 3.60244 174.981 3.1095ZM170.598 4.10758C171.258 4.52796 172.616 4.66203 173.463 4.39034C174.872 3.93827 174.772 3.45638 173.183 3.0435C172.479 2.86031 172.123 2.86312 171.41 3.057C170.197 3.38719 169.956 3.69901 170.598 4.10758ZM173.07 2.30568C173.681 2.43918 173.829 2.40955 173.987 2.12117C174.389 1.39216 174.23 1.19023 173.26 1.19454C172.214 1.19923 170.98 1.68673 170.415 2.31843L170.029 2.74931L170.511 2.61337C171.91 2.21942 172.403 2.16018 173.07 2.30568ZM170.415 5.12497C170.98 5.75667 172.214 6.24417 173.26 6.24886C174.008 6.25224 174.175 6.19261 174.171 5.92486C174.158 5.19772 173.839 4.9699 173.068 5.13809C172.404 5.28322 171.909 5.2236 170.511 4.83003L170.029 4.69409L170.415 5.12497ZM156.741 8.40833C157.665 9.29128 159.746 10.5655 160.265 10.5655C160.584 10.5655 160.532 10.4013 159.783 9.03702C159.407 8.35095 158.714 7.39919 158.243 6.92218C157.402 6.06905 155.772 4.94047 155.381 4.94047C155.271 4.94047 155.952 5.69235 156.893 6.61131C158.189 7.87676 158.572 8.36314 158.473 8.61571C158.364 8.89003 158.019 8.6369 156.516 7.18281C155.512 6.21136 154.691 5.48423 154.691 5.5671C154.691 5.95711 155.833 7.53963 156.741 8.40833Z" fill="#B0A6BD"/>
</svg>
